<mxfile host="app.diagrams.net" agent="Mozilla/5.0 (Windows NT 10.0; Win64; x64) AppleWebKit/537.36 (KHTML, like Gecko) Chrome/131.0.0.0 Safari/537.36" version="26.0.2">
  <diagram name="Page-1" id="Kv7xAL1uLG0Eq4g3Ebbs">
    <mxGraphModel dx="-789" dy="465" grid="1" gridSize="10" guides="1" tooltips="1" connect="1" arrows="1" fold="1" page="1" pageScale="1" pageWidth="850" pageHeight="1100" math="0" shadow="0">
      <root>
        <mxCell id="0" />
        <mxCell id="1" parent="0" />
        <mxCell id="fBDcnERQuijpaPTpogGk-10" value="" style="endArrow=classic;html=1;rounded=0;entryX=0.723;entryY=0.995;entryDx=0;entryDy=0;exitX=0.5;exitY=1;exitDx=0;exitDy=0;entryPerimeter=0;" edge="1" parent="1" source="fBDcnERQuijpaPTpogGk-13" target="fBDcnERQuijpaPTpogGk-30">
          <mxGeometry width="50" height="50" relative="1" as="geometry">
            <mxPoint x="1860" y="940" as="sourcePoint" />
            <mxPoint x="1870" y="1070" as="targetPoint" />
            <Array as="points">
              <mxPoint x="1870" y="1020" />
              <mxPoint x="1740" y="1020" />
              <mxPoint x="1740" y="760" />
              <mxPoint x="1823" y="760" />
            </Array>
          </mxGeometry>
        </mxCell>
        <mxCell id="fBDcnERQuijpaPTpogGk-13" value="+1" style="rounded=0;whiteSpace=wrap;html=1;" vertex="1" parent="1">
          <mxGeometry x="1840" y="880" width="60" height="60" as="geometry" />
        </mxCell>
        <mxCell id="fBDcnERQuijpaPTpogGk-15" value="" style="endArrow=classic;html=1;rounded=0;entryX=1.034;entryY=0.583;entryDx=0;entryDy=0;entryPerimeter=0;" edge="1" parent="1">
          <mxGeometry width="50" height="50" relative="1" as="geometry">
            <mxPoint x="1927.96" y="930.02" as="sourcePoint" />
            <mxPoint x="1900" y="930" as="targetPoint" />
          </mxGeometry>
        </mxCell>
        <mxCell id="fBDcnERQuijpaPTpogGk-16" value="data_i &amp;amp; done_i" style="text;html=1;align=center;verticalAlign=middle;whiteSpace=wrap;rounded=0;" vertex="1" parent="1">
          <mxGeometry x="1910" y="900" width="130" height="30" as="geometry" />
        </mxCell>
        <mxCell id="fBDcnERQuijpaPTpogGk-17" value="" style="endArrow=classic;html=1;rounded=0;entryX=0.166;entryY=-0.003;entryDx=0;entryDy=0;entryPerimeter=0;" edge="1" parent="1">
          <mxGeometry width="50" height="50" relative="1" as="geometry">
            <mxPoint x="1870" y="840" as="sourcePoint" />
            <mxPoint x="1870" y="880" as="targetPoint" />
          </mxGeometry>
        </mxCell>
        <mxCell id="fBDcnERQuijpaPTpogGk-21" value="" style="rounded=0;whiteSpace=wrap;html=1;" vertex="1" parent="1">
          <mxGeometry x="1880" y="640" width="40" height="40" as="geometry" />
        </mxCell>
        <mxCell id="fBDcnERQuijpaPTpogGk-23" value="" style="triangle;whiteSpace=wrap;html=1;direction=north;" vertex="1" parent="1">
          <mxGeometry x="1895" y="670" width="10" height="10" as="geometry" />
        </mxCell>
        <mxCell id="fBDcnERQuijpaPTpogGk-24" value="" style="endArrow=classic;html=1;rounded=0;entryX=0;entryY=0.5;entryDx=0;entryDy=0;" edge="1" parent="1" target="fBDcnERQuijpaPTpogGk-21">
          <mxGeometry width="50" height="50" relative="1" as="geometry">
            <mxPoint x="1800" y="660" as="sourcePoint" />
            <mxPoint x="1850" y="650" as="targetPoint" />
          </mxGeometry>
        </mxCell>
        <mxCell id="fBDcnERQuijpaPTpogGk-25" value="" style="endArrow=classic;html=1;rounded=0;exitX=1;exitY=0.5;exitDx=0;exitDy=0;" edge="1" parent="1" source="fBDcnERQuijpaPTpogGk-21">
          <mxGeometry width="50" height="50" relative="1" as="geometry">
            <mxPoint x="1890" y="740" as="sourcePoint" />
            <mxPoint x="1980" y="660" as="targetPoint" />
          </mxGeometry>
        </mxCell>
        <mxCell id="fBDcnERQuijpaPTpogGk-26" value="progress_done_i" style="text;html=1;align=center;verticalAlign=middle;whiteSpace=wrap;rounded=0;" vertex="1" parent="1">
          <mxGeometry x="1780" y="630" width="60" height="30" as="geometry" />
        </mxCell>
        <mxCell id="fBDcnERQuijpaPTpogGk-29" value="done_o" style="text;html=1;align=center;verticalAlign=middle;whiteSpace=wrap;rounded=0;" vertex="1" parent="1">
          <mxGeometry x="1940" y="630" width="60" height="30" as="geometry" />
        </mxCell>
        <mxCell id="fBDcnERQuijpaPTpogGk-30" value="" style="shape=trapezoid;perimeter=trapezoidPerimeter;whiteSpace=wrap;html=1;fixedSize=1;direction=west;" vertex="1" parent="1">
          <mxGeometry x="1790" y="780" width="120" height="60" as="geometry" />
        </mxCell>
        <mxCell id="fBDcnERQuijpaPTpogGk-32" value="bit_one [9:0]" style="text;html=1;align=center;verticalAlign=middle;whiteSpace=wrap;rounded=0;" vertex="1" parent="1">
          <mxGeometry x="1770" y="720" width="90" height="30" as="geometry" />
        </mxCell>
        <mxCell id="fBDcnERQuijpaPTpogGk-33" value="bit_one [9:0]" style="text;html=1;align=center;verticalAlign=middle;whiteSpace=wrap;rounded=0;" vertex="1" parent="1">
          <mxGeometry x="1880" y="840" width="90" height="30" as="geometry" />
        </mxCell>
        <mxCell id="fBDcnERQuijpaPTpogGk-35" value="0" style="text;html=1;align=center;verticalAlign=middle;whiteSpace=wrap;rounded=0;" vertex="1" parent="1">
          <mxGeometry x="1856.25" y="730" width="52.5" height="30" as="geometry" />
        </mxCell>
        <mxCell id="fBDcnERQuijpaPTpogGk-36" value="" style="endArrow=classic;html=1;rounded=0;entryX=0;entryY=0.5;entryDx=0;entryDy=0;" edge="1" parent="1" target="fBDcnERQuijpaPTpogGk-30">
          <mxGeometry width="50" height="50" relative="1" as="geometry">
            <mxPoint x="1990" y="810" as="sourcePoint" />
            <mxPoint x="2060" y="770" as="targetPoint" />
          </mxGeometry>
        </mxCell>
        <mxCell id="fBDcnERQuijpaPTpogGk-37" value="rst" style="text;html=1;align=center;verticalAlign=middle;whiteSpace=wrap;rounded=0;" vertex="1" parent="1">
          <mxGeometry x="1920" y="780" width="60" height="30" as="geometry" />
        </mxCell>
        <mxCell id="fBDcnERQuijpaPTpogGk-39" value="1" style="text;html=1;align=center;verticalAlign=middle;whiteSpace=wrap;rounded=0;" vertex="1" parent="1">
          <mxGeometry x="1865" y="780" width="35" height="20" as="geometry" />
        </mxCell>
        <mxCell id="fBDcnERQuijpaPTpogGk-40" value="0" style="text;html=1;align=center;verticalAlign=middle;whiteSpace=wrap;rounded=0;" vertex="1" parent="1">
          <mxGeometry x="1805" y="780" width="35" height="20" as="geometry" />
        </mxCell>
        <mxCell id="fBDcnERQuijpaPTpogGk-41" value="" style="endArrow=classic;html=1;rounded=0;entryX=0.424;entryY=0.001;entryDx=0;entryDy=0;entryPerimeter=0;" edge="1" parent="1" target="fBDcnERQuijpaPTpogGk-39">
          <mxGeometry width="50" height="50" relative="1" as="geometry">
            <mxPoint x="1880" y="760" as="sourcePoint" />
            <mxPoint x="1890" y="770" as="targetPoint" />
          </mxGeometry>
        </mxCell>
        <mxCell id="fBDcnERQuijpaPTpogGk-42" value="" style="triangle;whiteSpace=wrap;html=1;direction=north;" vertex="1" parent="1">
          <mxGeometry x="1862.5" y="930" width="15" height="10" as="geometry" />
        </mxCell>
        <mxCell id="fBDcnERQuijpaPTpogGk-43" value="" style="endArrow=classic;html=1;rounded=0;entryX=0.723;entryY=0.995;entryDx=0;entryDy=0;exitX=0.5;exitY=1;exitDx=0;exitDy=0;entryPerimeter=0;" edge="1" parent="1" source="fBDcnERQuijpaPTpogGk-44" target="fBDcnERQuijpaPTpogGk-47">
          <mxGeometry width="50" height="50" relative="1" as="geometry">
            <mxPoint x="2180" y="940" as="sourcePoint" />
            <mxPoint x="2190" y="1070" as="targetPoint" />
            <Array as="points">
              <mxPoint x="2190" y="1020" />
              <mxPoint x="2060" y="1020" />
              <mxPoint x="2060" y="760" />
              <mxPoint x="2143" y="760" />
            </Array>
          </mxGeometry>
        </mxCell>
        <mxCell id="fBDcnERQuijpaPTpogGk-44" value="+1" style="rounded=0;whiteSpace=wrap;html=1;" vertex="1" parent="1">
          <mxGeometry x="2160" y="880" width="60" height="60" as="geometry" />
        </mxCell>
        <mxCell id="fBDcnERQuijpaPTpogGk-45" value="" style="endArrow=classic;html=1;rounded=0;entryX=1.034;entryY=0.583;entryDx=0;entryDy=0;entryPerimeter=0;" edge="1" parent="1">
          <mxGeometry width="50" height="50" relative="1" as="geometry">
            <mxPoint x="2247.96" y="930.02" as="sourcePoint" />
            <mxPoint x="2220" y="930" as="targetPoint" />
          </mxGeometry>
        </mxCell>
        <mxCell id="fBDcnERQuijpaPTpogGk-46" value="" style="endArrow=classic;html=1;rounded=0;entryX=0.166;entryY=-0.003;entryDx=0;entryDy=0;entryPerimeter=0;" edge="1" parent="1">
          <mxGeometry width="50" height="50" relative="1" as="geometry">
            <mxPoint x="2190" y="840" as="sourcePoint" />
            <mxPoint x="2190" y="880" as="targetPoint" />
          </mxGeometry>
        </mxCell>
        <mxCell id="fBDcnERQuijpaPTpogGk-47" value="" style="shape=trapezoid;perimeter=trapezoidPerimeter;whiteSpace=wrap;html=1;fixedSize=1;direction=west;" vertex="1" parent="1">
          <mxGeometry x="2110" y="780" width="120" height="60" as="geometry" />
        </mxCell>
        <mxCell id="fBDcnERQuijpaPTpogGk-48" value="bit_zero [9:0]" style="text;html=1;align=center;verticalAlign=middle;whiteSpace=wrap;rounded=0;" vertex="1" parent="1">
          <mxGeometry x="2090" y="720" width="90" height="30" as="geometry" />
        </mxCell>
        <mxCell id="fBDcnERQuijpaPTpogGk-49" value="bit_zero [9:0]" style="text;html=1;align=center;verticalAlign=middle;whiteSpace=wrap;rounded=0;" vertex="1" parent="1">
          <mxGeometry x="2200" y="840" width="90" height="30" as="geometry" />
        </mxCell>
        <mxCell id="fBDcnERQuijpaPTpogGk-50" value="0" style="text;html=1;align=center;verticalAlign=middle;whiteSpace=wrap;rounded=0;" vertex="1" parent="1">
          <mxGeometry x="2176.25" y="730" width="52.5" height="30" as="geometry" />
        </mxCell>
        <mxCell id="fBDcnERQuijpaPTpogGk-51" value="" style="endArrow=classic;html=1;rounded=0;entryX=0;entryY=0.5;entryDx=0;entryDy=0;" edge="1" parent="1" target="fBDcnERQuijpaPTpogGk-47">
          <mxGeometry width="50" height="50" relative="1" as="geometry">
            <mxPoint x="2310" y="810" as="sourcePoint" />
            <mxPoint x="2380" y="770" as="targetPoint" />
          </mxGeometry>
        </mxCell>
        <mxCell id="fBDcnERQuijpaPTpogGk-52" value="rst" style="text;html=1;align=center;verticalAlign=middle;whiteSpace=wrap;rounded=0;" vertex="1" parent="1">
          <mxGeometry x="2240" y="780" width="60" height="30" as="geometry" />
        </mxCell>
        <mxCell id="fBDcnERQuijpaPTpogGk-53" value="1" style="text;html=1;align=center;verticalAlign=middle;whiteSpace=wrap;rounded=0;" vertex="1" parent="1">
          <mxGeometry x="2185" y="780" width="35" height="20" as="geometry" />
        </mxCell>
        <mxCell id="fBDcnERQuijpaPTpogGk-54" value="0" style="text;html=1;align=center;verticalAlign=middle;whiteSpace=wrap;rounded=0;" vertex="1" parent="1">
          <mxGeometry x="2125" y="780" width="35" height="20" as="geometry" />
        </mxCell>
        <mxCell id="fBDcnERQuijpaPTpogGk-55" value="" style="endArrow=classic;html=1;rounded=0;entryX=0.424;entryY=0.001;entryDx=0;entryDy=0;entryPerimeter=0;" edge="1" parent="1" target="fBDcnERQuijpaPTpogGk-53">
          <mxGeometry width="50" height="50" relative="1" as="geometry">
            <mxPoint x="2200" y="760" as="sourcePoint" />
            <mxPoint x="2210" y="770" as="targetPoint" />
          </mxGeometry>
        </mxCell>
        <mxCell id="fBDcnERQuijpaPTpogGk-56" value="" style="triangle;whiteSpace=wrap;html=1;direction=north;" vertex="1" parent="1">
          <mxGeometry x="2182.5" y="930" width="15" height="10" as="geometry" />
        </mxCell>
        <mxCell id="fBDcnERQuijpaPTpogGk-57" value="!data_i &amp;amp; done_i" style="text;html=1;align=center;verticalAlign=middle;whiteSpace=wrap;rounded=0;" vertex="1" parent="1">
          <mxGeometry x="2220" y="895" width="130" height="30" as="geometry" />
        </mxCell>
      </root>
    </mxGraphModel>
  </diagram>
</mxfile>
